<?xml version="1.0" standalone="no"?>
<!DOCTYPE svg PUBLIC "-//W3C//DTD SVG 20010904//EN"
 "http://www.w3.org/TR/2001/REC-SVG-20010904/DTD/svg10.dtd">
<svg version="1.0" xmlns="http://www.w3.org/2000/svg"
 width="736.000000pt" height="736.000000pt" viewBox="0 0 736.000000 736.000000"
 preserveAspectRatio="xMidYMid meet">
<metadata>
Created by potrace 1.14, written by Peter Selinger 2001-2017
</metadata>
<g transform="translate(0.000000,736.000000) scale(0.100000,-0.100000)"
fill="#000000" stroke="none">
<path d="M5058 7064 c-2 -2 -24 -6 -49 -9 -44 -5 -84 -12 -84 -15 0 -1 -9 -3
-21 -5 -12 -3 -42 -13 -67 -24 -26 -11 -47 -17 -47 -13 0 4 -4 3 -8 -3 -4 -5
-33 -23 -64 -40 -32 -16 -69 -38 -82 -50 -14 -11 -39 -31 -57 -45 -40 -31
-102 -96 -134 -142 -14 -18 -28 -37 -32 -43 -4 -5 -17 -27 -28 -48 -11 -21
-23 -40 -26 -43 -4 -2 -25 13 -48 34 -58 53 -60 55 -124 95 -31 20 -57 34 -57
31 0 -3 -12 1 -27 10 -34 17 -79 34 -113 40 -14 3 -36 8 -50 11 -27 6 -149 7
-216 1 -115 -10 -297 -99 -389 -191 -41 -41 -105 -123 -105 -135 0 -29 -24 1
-45 57 -22 57 -45 100 -70 130 -5 7 -16 19 -22 27 -7 8 -13 17 -13 19 0 10
-99 102 -154 144 -75 56 -217 125 -311 149 -136 35 -406 22 -510 -26 -72 -33
-121 -52 -124 -51 -2 2 -7 -1 -10 -6 -3 -4 -32 -25 -64 -46 -171 -112 -325
-336 -362 -524 -3 -15 -8 -44 -12 -63 -4 -19 -7 -87 -7 -150 1 -128 24 -241
70 -339 15 -31 27 -59 26 -62 -1 -4 8 -15 18 -24 11 -10 20 -21 20 -25 0 -4
16 -25 36 -46 20 -22 44 -51 55 -66 l20 -27 -36 14 c-66 28 -168 44 -260 40
-159 -6 -255 -37 -385 -125 -136 -92 -249 -262 -287 -432 -8 -36 -8 -248 0
-288 10 -50 51 -156 74 -192 12 -21 23 -40 23 -44 0 -3 9 -17 20 -31 11 -15
19 -28 17 -29 -2 -2 -21 -6 -43 -9 -52 -6 -176 -36 -189 -45 -5 -4 -23 -10
-39 -14 -16 -4 -41 -16 -54 -27 -14 -10 -29 -19 -35 -19 -16 0 -135 -89 -186
-139 -124 -122 -224 -309 -247 -461 -3 -19 -7 -46 -10 -60 -13 -72 -4 -214 21
-317 3 -13 7 -31 9 -40 7 -29 47 -127 57 -139 5 -6 7 -13 4 -16 -3 -3 1 -11
10 -18 8 -7 15 -17 15 -22 0 -16 81 -121 134 -174 50 -50 156 -134 170 -134 3
0 23 -11 44 -24 86 -54 281 -104 395 -101 20 1 37 -2 37 -6 0 -9 -33 -72 -41
-79 -9 -7 -47 -114 -54 -147 -41 -221 -13 -377 101 -553 45 -70 90 -120 143
-160 18 -14 38 -30 44 -35 16 -14 160 -89 167 -87 3 1 23 -4 45 -10 22 -6 47
-13 55 -16 8 -2 70 -4 137 -5 l121 -1 -9 -25 c-5 -14 -13 -35 -18 -46 -7 -15
-25 -80 -22 -80 0 0 -5 -25 -12 -55 -23 -102 -12 -286 25 -400 19 -60 75 -188
88 -200 3 -3 11 -17 19 -33 33 -63 236 -257 269 -257 6 0 12 -4 14 -8 3 -9 93
-52 108 -52 5 0 10 -4 10 -9 0 -5 10 -11 23 -14 12 -3 40 -11 62 -17 22 -6 52
-13 66 -15 15 -2 44 -8 67 -13 41 -10 245 -8 261 2 5 3 26 8 47 12 51 8 166
50 223 81 148 82 279 211 351 347 14 25 27 46 30 46 3 0 19 -12 36 -27 61 -55
84 -73 93 -73 5 0 11 -4 13 -8 3 -9 130 -73 150 -76 7 -1 19 -5 25 -9 7 -4 28
-9 46 -11 19 -2 38 -5 43 -8 5 -3 54 -6 109 -6 85 -1 129 5 225 29 8 2 53 23
101 47 100 49 198 134 257 222 l40 59 27 -67 c84 -209 339 -417 572 -465 97
-19 157 -25 245 -22 59 2 111 5 115 8 4 3 26 8 47 11 21 4 59 15 82 26 24 10
44 17 44 14 0 -2 35 14 78 37 178 94 309 229 391 403 36 74 73 184 70 203 -1
4 -1 10 1 13 14 36 19 226 7 290 -13 78 -27 129 -55 200 -28 70 -66 135 -95
162 -24 22 -14 26 68 27 90 1 208 31 297 76 38 20 75 40 81 45 7 6 32 26 57
46 36 29 91 92 148 169 7 10 34 65 37 75 1 3 8 21 17 41 43 98 60 329 30 402
-6 15 -9 27 -7 27 3 0 -1 15 -8 33 -15 34 -12 57 6 57 18 0 147 62 147 71 0 5
5 9 11 9 27 0 171 132 235 215 43 56 97 158 123 235 38 110 46 157 45 295 -1
157 -20 243 -82 375 -61 129 -149 237 -267 324 -71 53 -195 123 -195 110 0 -3
-6 -2 -12 4 -7 5 -33 16 -58 23 -25 7 -47 13 -50 14 -3 1 -25 5 -50 9 -43 7
-81 14 -88 15 -2 1 13 20 32 43 20 23 36 47 36 54 0 7 4 14 9 16 16 6 58 102
81 183 24 81 31 219 17 310 -7 43 -53 173 -68 191 -5 6 -6 14 -2 17 3 4 1 7
-5 7 -7 0 -12 5 -12 11 0 11 -83 122 -111 149 -103 99 -244 172 -375 195 -60
11 -198 12 -211 2 -7 -5 -17 -6 -22 -3 -9 6 1 23 35 60 34 37 90 190 110 301
14 84 5 283 -15 338 -5 12 -9 27 -10 32 -11 65 -85 218 -142 292 -40 51 -108
121 -159 162 -14 11 -30 25 -37 31 -7 5 -15 10 -18 10 -3 0 -24 12 -48 27 -23
15 -44 28 -47 28 -3 1 -26 10 -52 22 -49 22 -128 46 -193 58 -42 8 -231 15
-237 9z"/>
</g>
</svg>
